' Copyright (C) 2019 - present Juergen Zimmermann, Hochschule Karlsruhe
'
' This program is free software: you can redistribute it and/or modify
' it under the terms of the GNU General Public License as published by
' the Free Software Foundation, either version 3 of the License, or
' (at your option) any later version.
'
' This program is distributed in the hope that it will be useful,
' but WITHOUT ANY WARRANTY; without even the implied warranty of
' MERCHANTABILITY or FITNESS FOR A PARTICULAR PURPOSE.  See the
' GNU General Public License for more details.
'
' You should have received a copy of the GNU General Public License
' along with this program.  If not, see <https://www.gnu.org/licenses/>.
@startuml Fussballverein

skinparam classAttributeIconSize 0
' skinparam monochrome true

package java {
    package util {
        class UUID
        interface List<T>
        class URL
    }

    package time {
        class LocalDate
    }

    UUID .[hidden].> LocalDate
}

package com.acme.fussballverein.entity #DDDDDD {

    class Adresse {
        plz: String
        ort: String
    }

    class Fussballverein << entity >> {
        id : UUID
        vereinsname : String
        email : String
        mannschaft: Int
        entstehungsdatum: LocalDate
        homepage: URL
    }

    Fussballverein *--> "1" Adresse : adresse

    Fussballverein ..> UUID
    Fussballverein ..> LocalDate
    Fussballverein ..> List
    Fussballverein ..> URL
}

hide empty members


@enduml
